<?xml version="1.0" encoding="UTF-8"?><svg id="Layer_1" xmlns="http://www.w3.org/2000/svg" viewBox="0 0 99.23 49.91"><defs><style>.cls-1{fill:#fff;}</style></defs><polygon class="cls-1" points=".1 1.23 .1 20.9 2.78 20.9 2.78 7.87 7.41 18.16 9.53 18.16 14.04 7.62 14.04 20.88 16.83 20.88 16.83 1.24 14.14 1.24 8.51 14.04 2.74 1.22 .1 1.23"/><polygon class="cls-1" points="21.66 1.24 21.66 20.92 24.35 20.92 24.35 1.25 21.66 1.24"/><polygon class="cls-1" points="48.84 1.35 48.84 20.88 51.52 20.88 51.52 1.35 48.84 1.35"/><path class="cls-1" d="m29.31,1.34v19.49h2.7V6.51l9.44,14.37h2.48V1.32h-2.74v14.55L31.87,1.32s-2.49.02-2.56.02Z"/><path class="cls-1" d="m0,25.59v24.24h3.73v-16.51l5.16,13.52h3.04l5.12-13.82v16.78h3.69v-24.13h-4.53l-5.75,15.92-5.72-15.98s-4.8-.02-4.73-.02Z"/><polygon class="cls-1" points="26.35 25.52 26.35 49.71 30.46 49.71 30.44 25.52 26.35 25.52"/><path class="cls-1" d="m36.03,25.56v24.18h3.78v-17.41l9.89,17.36h4.36v-24.15h-3.85v17.78l-9.74-17.76s-4.41,0-4.44,0Z"/><polygon class="cls-1" points="59.82 25.53 59.82 49.71 75.62 49.71 75.62 45.85 63.87 45.85 63.87 39.74 73.81 39.74 73.81 35.71 63.86 35.71 63.86 29.39 75.61 29.39 75.61 25.53 59.82 25.53"/><polygon class="cls-1" points="96.92 0 96.92 2.71 97.29 2.71 97.29 .91 97.93 2.33 98.23 2.33 98.85 .88 98.85 2.71 99.23 2.71 99.23 0 98.86 0 98.09 1.76 97.29 0 96.92 0"/><polygon class="cls-1" points="94.7 0 94.7 .36 95.41 .36 95.41 2.72 95.77 2.72 95.77 .36 96.54 .35 96.54 0 94.7 0"/><path class="cls-1" d="m94.01,30.95l1.89-3.01c-5.29-3.66-11.28-3.54-14.18-.56-2.09,2.14-2.7,5.75-1.26,8.41,1.38,2.57,4.44,3.32,7.12,3.7,1.68.24,3.68.63,4.54,2.3.93,1.78-.39,3.32-2.08,3.86-3.15,1.03-6.82.29-9.32-1.89-.65.96-1.31,1.92-1.96,2.87-.05.08-.11.17-.09.26.02.09.09.14.15.2,3.13,2.38,7.31,3.33,11.18,2.55,1.26-.26,2.5-.7,3.57-1.41,1.83-1.23,3-3.4,2.97-5.62-.04-2.67-1.9-4.41-2.19-4.65-1.41-1.27-3.19-1.68-4.29-1.93-.17-.04-1.16-.25-2.72-.61-.35-.08-.69-.16-1.13-.27-1.44-.35-2.43-1.63-2.42-3.04.01-1.55,1.25-2.9,2.87-3.05.84-.13,2.35-.26,4.14.25,1.48.42,2.57,1.14,3.2,1.63Z"/><path class="cls-1" d="m64.8,1.34c-5.41,0-9.78,4.39-9.78,9.78s4.39,9.78,9.78,9.78,9.78-4.39,9.78-9.78-4.38-9.78-9.78-9.78Zm4.07,11.24h-2.88v3.11h-2.74v-3.11h-3.16v-2.46h3.2v-3.13h2.58v3.13h2.99v2.46h.01Z"/><path class="cls-1" d="m86.24,1.38c-5.39,0-9.76,4.38-9.76,9.76s4.38,9.76,9.76,9.76,9.76-4.38,9.76-9.76-4.38-9.76-9.76-9.76Zm3.56,10.81h-7.6v-2.48c.07,0,7.6-.02,7.6-.02v2.5Z"/></svg>